<?xml version="1.0" encoding="utf-8" standalone="no"?>
<!DOCTYPE svg PUBLIC "-//W3C//DTD SVG 1.1//EN"
  "http://www.w3.org/Graphics/SVG/1.1/DTD/svg11.dtd">
<svg xmlns:xlink="http://www.w3.org/1999/xlink" width="508.893pt" height="293.04pt" viewBox="0 0 508.893 293.04" xmlns="http://www.w3.org/2000/svg" version="1.1">
 <metadata>
  <rdf:RDF xmlns:dc="http://purl.org/dc/elements/1.1/" xmlns:cc="http://creativecommons.org/ns#" xmlns:rdf="http://www.w3.org/1999/02/22-rdf-syntax-ns#">
   <cc:Work>
    <dc:type rdf:resource="http://purl.org/dc/dcmitype/StillImage"/>
    <dc:date>2026-07-09T20:35:46.679785</dc:date>
    <dc:format>image/svg+xml</dc:format>
    <dc:creator>
     <cc:Agent>
      <dc:title>Matplotlib v3.11.0, https://matplotlib.org/</dc:title>
     </cc:Agent>
    </dc:creator>
   </cc:Work>
  </rdf:RDF>
 </metadata>
 <defs>
  <style type="text/css">*{stroke-linejoin: round; stroke-linecap: butt}</style>
 </defs>
 <g id="figure_1">
  <g id="patch_1">
   <path d="M 0 293.04 
L 508.893 293.04 
L 508.893 0 
L 0 0 
z
" style="fill: #181b22"/>
  </g>
  <g id="axes_1">
   <g id="FillBetweenPolyCollection_1">
    <defs>
     <path id="med4e2b5f48" d="M 53.187849 -134.91 
L 53.187849 -134.91 
L 54.534061 -134.91 
L 55.880272 -134.91 
L 57.226484 -134.91 
L 58.572696 -134.91 
L 59.918908 -134.91 
L 61.265119 -134.91 
L 62.611331 -134.91 
L 63.957543 -134.91 
L 65.303754 -134.91 
L 66.649966 -134.91 
L 67.996178 -134.91 
L 69.34239 -134.91 
L 70.688601 -134.91 
L 72.034813 -134.91 
L 73.381025 -134.91 
L 74.727236 -134.91 
L 76.073448 -134.91 
L 77.41966 -134.91 
L 78.765872 -134.91 
L 80.112083 -134.91 
L 81.458295 -134.91 
L 82.804507 -134.91 
L 84.150718 -134.91 
L 85.49693 -134.91 
L 86.843142 -134.91 
L 88.189354 -134.91 
L 89.535565 -134.91 
L 90.881777 -134.91 
L 92.227989 -134.91 
L 93.5742 -134.91 
L 94.920412 -134.91 
L 96.266624 -134.91 
L 97.612836 -134.91 
L 98.959047 -134.91 
L 100.305259 -134.91 
L 101.651471 -134.91 
L 102.997682 -134.91 
L 104.343894 -134.91 
L 105.690106 -134.91 
L 107.036317 -134.91 
L 108.382529 -134.91 
L 109.728741 -134.91 
L 111.074953 -134.91 
L 112.421164 -134.91 
L 113.767376 -134.91 
L 115.113588 -134.91 
L 116.459799 -134.91 
L 117.806011 -134.91 
L 119.152223 -134.91 
L 120.498435 -134.91 
L 121.844646 -134.91 
L 123.190858 -134.91 
L 124.53707 -134.91 
L 125.883281 -134.91 
L 127.229493 -134.91 
L 128.575705 -134.91 
L 129.921917 -134.91 
L 131.268128 -134.91 
L 132.61434 -134.91 
L 133.960552 -134.91 
L 135.306763 -134.91 
L 136.652975 -134.91 
L 137.999187 -134.91 
L 139.345399 -134.91 
L 140.69161 -134.91 
L 142.037822 -134.91 
L 143.384034 -134.91 
L 144.730245 -134.91 
L 146.076457 -134.91 
L 147.422669 -134.91 
L 148.768881 -134.91 
L 150.115092 -134.91 
L 151.461304 -134.91 
L 152.807516 -134.91 
L 154.153727 -134.91 
L 155.499939 -134.91 
L 156.846151 -134.91 
L 158.192363 -134.91 
L 159.538574 -134.91 
L 160.884786 -134.91 
L 162.230998 -134.91 
L 163.577209 -134.91 
L 164.923421 -134.91 
L 166.269633 -134.91 
L 167.615845 -134.91 
L 168.962056 -134.91 
L 170.308268 -134.91 
L 171.65448 -134.91 
L 173.000691 -134.91 
L 174.346903 -134.91 
L 175.693115 -134.91 
L 177.039327 -134.91 
L 178.385538 -134.91 
L 179.73175 -134.91 
L 181.077962 -134.91 
L 182.424173 -134.91 
L 183.770385 -134.91 
L 185.116597 -134.91 
L 186.462809 -134.91 
L 187.80902 -134.91 
L 189.155232 -134.91 
L 190.501444 -134.91 
L 191.847655 -134.91 
L 193.193867 -134.91 
L 194.540079 -134.91 
L 195.886291 -134.91 
L 197.232502 -134.91 
L 198.578714 -134.91 
L 199.924926 -134.91 
L 201.271137 -134.91 
L 202.617349 -134.91 
L 203.963561 -134.91 
L 205.309772 -134.91 
L 206.655984 -134.91 
L 208.002196 -134.91 
L 209.348408 -134.91 
L 210.694619 -134.91 
L 212.040831 -134.91 
L 213.387043 -134.91 
L 214.733254 -134.91 
L 216.079466 -134.91 
L 217.425678 -134.91 
L 218.77189 -134.91 
L 220.118101 -134.91 
L 221.464313 -134.91 
L 222.810525 -134.91 
L 224.156736 -134.91 
L 225.502948 -134.91 
L 226.84916 -134.91 
L 228.195372 -134.91 
L 229.541583 -134.91 
L 230.887795 -134.91 
L 232.234007 -134.91 
L 233.580218 -134.91 
L 234.92643 -134.91 
L 236.272642 -134.91 
L 237.618854 -134.91 
L 238.965065 -134.91 
L 240.311277 -134.91 
L 241.657489 -134.91 
L 243.0037 -134.91 
L 244.349912 -134.91 
L 245.696124 -134.91 
L 247.042336 -134.91 
L 248.388547 -134.91 
L 249.734759 -134.91 
L 251.080971 -134.91 
L 252.427182 -134.91 
L 253.773394 -134.91 
L 255.119606 -134.91 
L 256.465818 -134.91 
L 257.812029 -134.91 
L 259.158241 -134.91 
L 260.504453 -134.91 
L 261.850664 -134.91 
L 263.196876 -134.91 
L 264.543088 -134.91 
L 265.8893 -134.91 
L 267.235511 -134.91 
L 268.581723 -134.91 
L 269.927935 -134.91 
L 271.274146 -134.91 
L 272.620358 -134.91 
L 273.96657 -134.91 
L 275.312782 -134.91 
L 276.658993 -134.91 
L 278.005205 -134.91 
L 279.351417 -134.91 
L 280.697628 -134.91 
L 282.04384 -134.91 
L 283.390052 -134.91 
L 284.736264 -134.91 
L 286.082475 -134.91 
L 287.428687 -134.91 
L 288.774899 -134.91 
L 290.12111 -134.91 
L 291.467322 -134.91 
L 292.813534 -134.91 
L 294.159746 -134.91 
L 295.505957 -134.91 
L 296.852169 -134.91 
L 298.198381 -134.91 
L 299.544592 -134.91 
L 300.890804 -134.91 
L 302.237016 -134.91 
L 303.583228 -134.91 
L 304.929439 -134.91 
L 306.275651 -134.91 
L 307.621863 -134.91 
L 308.968074 -134.91 
L 310.314286 -134.91 
L 311.660498 -134.91 
L 313.006709 -134.91 
L 314.352921 -134.91 
L 315.699133 -134.91 
L 317.045345 -134.91 
L 318.391556 -134.91 
L 319.737768 -134.91 
L 321.08398 -134.91 
L 322.430191 -134.91 
L 323.776403 -134.91 
L 325.122615 -134.91 
L 326.468827 -134.91 
L 327.815038 -134.91 
L 329.16125 -134.91 
L 330.507462 -134.91 
L 331.853673 -134.91 
L 333.199885 -134.91 
L 334.546097 -134.91 
L 335.892309 -134.91 
L 337.23852 -134.91 
L 338.584732 -134.91 
L 339.930944 -134.91 
L 341.277155 -134.91 
L 342.623367 -134.91 
L 343.969579 -134.91 
L 345.315791 -134.91 
L 346.662002 -134.91 
L 348.008214 -134.91 
L 349.354426 -134.91 
L 350.700637 -134.91 
L 352.046849 -134.91 
L 353.393061 -134.91 
L 354.739273 -134.91 
L 356.085484 -134.91 
L 357.431696 -134.91 
L 358.777908 -134.91 
L 360.124119 -134.91 
L 361.470331 -134.91 
L 362.816543 -134.91 
L 364.162755 -134.91 
L 365.508966 -134.91 
L 366.855178 -134.91 
L 368.20139 -134.91 
L 369.547601 -134.91 
L 370.893813 -134.91 
L 372.240025 -134.91 
L 373.586237 -134.91 
L 374.932448 -134.91 
L 376.27866 -134.91 
L 377.624872 -134.91 
L 378.971083 -134.91 
L 380.317295 -134.91 
L 381.663507 -134.91 
L 383.009719 -134.91 
L 384.35593 -134.91 
L 385.702142 -134.91 
L 387.048354 -134.91 
L 388.394565 -134.91 
L 389.740777 -134.91 
L 391.086989 -134.91 
L 392.433201 -134.91 
L 393.779412 -134.91 
L 395.125624 -134.91 
L 396.471836 -134.91 
L 397.818047 -134.91 
L 399.164259 -134.91 
L 400.510471 -134.91 
L 401.856683 -134.91 
L 403.202894 -134.91 
L 404.549106 -134.91 
L 405.895318 -134.91 
L 407.241529 -134.91 
L 408.587741 -134.91 
L 409.933953 -134.91 
L 411.280164 -134.91 
L 412.626376 -134.91 
L 413.972588 -134.91 
L 415.3188 -134.91 
L 416.665011 -134.91 
L 418.011223 -134.91 
L 419.357435 -134.91 
L 420.703646 -134.91 
L 422.049858 -134.91 
L 423.39607 -134.91 
L 424.742282 -134.91 
L 426.088493 -134.91 
L 427.434705 -134.91 
L 428.780917 -134.91 
L 430.127128 -134.91 
L 431.47334 -134.91 
L 432.819552 -134.91 
L 434.165764 -134.91 
L 435.511975 -134.91 
L 436.858187 -134.91 
L 438.204399 -134.91 
L 439.55061 -134.91 
L 440.896822 -134.91 
L 442.243034 -134.91 
L 443.589246 -134.91 
L 444.935457 -134.91 
L 446.281669 -134.91 
L 447.627881 -134.91 
L 448.974092 -134.91 
L 450.320304 -134.91 
L 451.666516 -134.91 
L 453.012728 -134.91 
L 454.358939 -134.91 
L 455.705151 -134.91 
L 455.705151 -134.91 
L 455.705151 -134.91 
L 454.358939 -135.885872 
L 453.012728 -136.861636 
L 451.666516 -137.837185 
L 450.320304 -138.812411 
L 448.974092 -139.787206 
L 447.627881 -140.761463 
L 446.281669 -141.735073 
L 444.935457 -142.70793 
L 443.589246 -143.679926 
L 442.243034 -144.650955 
L 440.896822 -145.620907 
L 439.55061 -146.589677 
L 438.204399 -147.557158 
L 436.858187 -148.523243 
L 435.511975 -149.487825 
L 434.165764 -150.450797 
L 432.819552 -151.412054 
L 431.47334 -152.371489 
L 430.127128 -153.328997 
L 428.780917 -154.284471 
L 427.434705 -155.237806 
L 426.088493 -156.188897 
L 424.742282 -157.137639 
L 423.39607 -158.083927 
L 422.049858 -159.027657 
L 420.703646 -159.968724 
L 419.357435 -160.907025 
L 418.011223 -161.842456 
L 416.665011 -162.774914 
L 415.3188 -163.704295 
L 413.972588 -164.630498 
L 412.626376 -165.55342 
L 411.280164 -166.472959 
L 409.933953 -167.389013 
L 408.587741 -168.301482 
L 407.241529 -169.210264 
L 405.895318 -170.11526 
L 404.549106 -171.01637 
L 403.202894 -171.913493 
L 401.856683 -172.806532 
L 400.510471 -173.695386 
L 399.164259 -174.579959 
L 397.818047 -175.460153 
L 396.471836 -176.33587 
L 395.125624 -177.207014 
L 393.779412 -178.073488 
L 392.433201 -178.935198 
L 391.086989 -179.792047 
L 389.740777 -180.643941 
L 388.394565 -181.490786 
L 387.048354 -182.332489 
L 385.702142 -183.168957 
L 384.35593 -184.000098 
L 383.009719 -184.825818 
L 381.663507 -185.646029 
L 380.317295 -186.460638 
L 378.971083 -187.269557 
L 377.624872 -188.072695 
L 376.27866 -188.869964 
L 374.932448 -189.661276 
L 373.586237 -190.446544 
L 372.240025 -191.225681 
L 370.893813 -191.9986 
L 369.547601 -192.765218 
L 368.20139 -193.525448 
L 366.855178 -194.279208 
L 365.508966 -195.026413 
L 364.162755 -195.766982 
L 362.816543 -196.500832 
L 361.470331 -197.227884 
L 360.124119 -197.948055 
L 358.777908 -198.661267 
L 357.431696 -199.367442 
L 356.085484 -200.0665 
L 354.739273 -200.758366 
L 353.393061 -201.442962 
L 352.046849 -202.120213 
L 350.700637 -202.790044 
L 349.354426 -203.452382 
L 348.008214 -204.107153 
L 346.662002 -204.754285 
L 345.315791 -205.393706 
L 343.969579 -206.025346 
L 342.623367 -206.649136 
L 341.277155 -207.265005 
L 339.930944 -207.872887 
L 338.584732 -208.472714 
L 337.23852 -209.06442 
L 335.892309 -209.64794 
L 334.546097 -210.223209 
L 333.199885 -210.790164 
L 331.853673 -211.348741 
L 330.507462 -211.898881 
L 329.16125 -212.440521 
L 327.815038 -212.973602 
L 326.468827 -213.498065 
L 325.122615 -214.013852 
L 323.776403 -214.520906 
L 322.430191 -215.019172 
L 321.08398 -215.508594 
L 319.737768 -215.989118 
L 318.391556 -216.460692 
L 317.045345 -216.923262 
L 315.699133 -217.376779 
L 314.352921 -217.821192 
L 313.006709 -218.256451 
L 311.660498 -218.68251 
L 310.314286 -219.09932 
L 308.968074 -219.506836 
L 307.621863 -219.905013 
L 306.275651 -220.293807 
L 304.929439 -220.673175 
L 303.583228 -221.043075 
L 302.237016 -221.403466 
L 300.890804 -221.754309 
L 299.544592 -222.095564 
L 298.198381 -222.427194 
L 296.852169 -222.749163 
L 295.505957 -223.061435 
L 294.159746 -223.363975 
L 292.813534 -223.656751 
L 291.467322 -223.939729 
L 290.12111 -224.212878 
L 288.774899 -224.476169 
L 287.428687 -224.729572 
L 286.082475 -224.973059 
L 284.736264 -225.206604 
L 283.390052 -225.43018 
L 282.04384 -225.643763 
L 280.697628 -225.84733 
L 279.351417 -226.040858 
L 278.005205 -226.224325 
L 276.658993 -226.397711 
L 275.312782 -226.560997 
L 273.96657 -226.714166 
L 272.620358 -226.857199 
L 271.274146 -226.990082 
L 269.927935 -227.1128 
L 268.581723 -227.225339 
L 267.235511 -227.327687 
L 265.8893 -227.419832 
L 264.543088 -227.501765 
L 263.196876 -227.573475 
L 261.850664 -227.634956 
L 260.504453 -227.686201 
L 259.158241 -227.727203 
L 257.812029 -227.757959 
L 256.465818 -227.778465 
L 255.119606 -227.788718 
L 253.773394 -227.788718 
L 252.427182 -227.778465 
L 251.080971 -227.757959 
L 249.734759 -227.727203 
L 248.388547 -227.686201 
L 247.042336 -227.634956 
L 245.696124 -227.573475 
L 244.349912 -227.501765 
L 243.0037 -227.419832 
L 241.657489 -227.327687 
L 240.311277 -227.225339 
L 238.965065 -227.1128 
L 237.618854 -226.990082 
L 236.272642 -226.857199 
L 234.92643 -226.714166 
L 233.580218 -226.560997 
L 232.234007 -226.397711 
L 230.887795 -226.224325 
L 229.541583 -226.040858 
L 228.195372 -225.84733 
L 226.84916 -225.643763 
L 225.502948 -225.43018 
L 224.156736 -225.206604 
L 222.810525 -224.973059 
L 221.464313 -224.729572 
L 220.118101 -224.476169 
L 218.77189 -224.212878 
L 217.425678 -223.939729 
L 216.079466 -223.656751 
L 214.733254 -223.363975 
L 213.387043 -223.061435 
L 212.040831 -222.749163 
L 210.694619 -222.427194 
L 209.348408 -222.095564 
L 208.002196 -221.754309 
L 206.655984 -221.403466 
L 205.309772 -221.043075 
L 203.963561 -220.673175 
L 202.617349 -220.293807 
L 201.271137 -219.905013 
L 199.924926 -219.506836 
L 198.578714 -219.09932 
L 197.232502 -218.68251 
L 195.886291 -218.256451 
L 194.540079 -217.821192 
L 193.193867 -217.376779 
L 191.847655 -216.923262 
L 190.501444 -216.460692 
L 189.155232 -215.989118 
L 187.80902 -215.508594 
L 186.462809 -215.019172 
L 185.116597 -214.520906 
L 183.770385 -214.013852 
L 182.424173 -213.498065 
L 181.077962 -212.973602 
L 179.73175 -212.440521 
L 178.385538 -211.898881 
L 177.039327 -211.348741 
L 175.693115 -210.790164 
L 174.346903 -210.223209 
L 173.000691 -209.64794 
L 171.65448 -209.06442 
L 170.308268 -208.472714 
L 168.962056 -207.872887 
L 167.615845 -207.265005 
L 166.269633 -206.649136 
L 164.923421 -206.025346 
L 163.577209 -205.393706 
L 162.230998 -204.754285 
L 160.884786 -204.107153 
L 159.538574 -203.452382 
L 158.192363 -202.790044 
L 156.846151 -202.120213 
L 155.499939 -201.442962 
L 154.153727 -200.758366 
L 152.807516 -200.0665 
L 151.461304 -199.367442 
L 150.115092 -198.661267 
L 148.768881 -197.948055 
L 147.422669 -197.227884 
L 146.076457 -196.500832 
L 144.730245 -195.766982 
L 143.384034 -195.026413 
L 142.037822 -194.279208 
L 140.69161 -193.525448 
L 139.345399 -192.765218 
L 137.999187 -191.9986 
L 136.652975 -191.225681 
L 135.306763 -190.446544 
L 133.960552 -189.661276 
L 132.61434 -188.869964 
L 131.268128 -188.072695 
L 129.921917 -187.269557 
L 128.575705 -186.460638 
L 127.229493 -185.646029 
L 125.883281 -184.825818 
L 124.53707 -184.000098 
L 123.190858 -183.168957 
L 121.844646 -182.332489 
L 120.498435 -181.490786 
L 119.152223 -180.643941 
L 117.806011 -179.792047 
L 116.459799 -178.935198 
L 115.113588 -178.073488 
L 113.767376 -177.207014 
L 112.421164 -176.33587 
L 111.074953 -175.460153 
L 109.728741 -174.579959 
L 108.382529 -173.695386 
L 107.036317 -172.806532 
L 105.690106 -171.913493 
L 104.343894 -171.01637 
L 102.997682 -170.11526 
L 101.651471 -169.210264 
L 100.305259 -168.301482 
L 98.959047 -167.389013 
L 97.612836 -166.472959 
L 96.266624 -165.55342 
L 94.920412 -164.630498 
L 93.5742 -163.704295 
L 92.227989 -162.774914 
L 90.881777 -161.842456 
L 89.535565 -160.907025 
L 88.189354 -159.968724 
L 86.843142 -159.027657 
L 85.49693 -158.083927 
L 84.150718 -157.137639 
L 82.804507 -156.188897 
L 81.458295 -155.237806 
L 80.112083 -154.284471 
L 78.765872 -153.328997 
L 77.41966 -152.371489 
L 76.073448 -151.412054 
L 74.727236 -150.450797 
L 73.381025 -149.487825 
L 72.034813 -148.523243 
L 70.688601 -147.557158 
L 69.34239 -146.589677 
L 67.996178 -145.620907 
L 66.649966 -144.650955 
L 65.303754 -143.679926 
L 63.957543 -142.70793 
L 62.611331 -141.735073 
L 61.265119 -140.761463 
L 59.918908 -139.787206 
L 58.572696 -138.812411 
L 57.226484 -137.837185 
L 55.880272 -136.861636 
L 54.534061 -135.885872 
L 53.187849 -134.91 
z
"/>
    </defs>
    <g clip-path="url(#pfbf6d7a0c5)">
     <use xlink:href="#med4e2b5f48" x="0" y="293.04" style="fill: #76d0ff; fill-opacity: 0.12"/>
    </g>
   </g>
   <g id="line2d_1">
    <path d="M 53.187849 158.13 
L 244.937019 158.13 
" clip-path="url(#pfbf6d7a0c5)" style="fill: none; stroke: #c4ccd8; stroke-width: 5"/>
   </g>
   <g id="line2d_2">
    <path d="M 263.955981 158.13 
L 455.705151 158.13 
" clip-path="url(#pfbf6d7a0c5)" style="fill: none; stroke: #c4ccd8; stroke-width: 5"/>
   </g>
   <g id="line2d_3">
    <path d="M 53.187849 158.13 
L 78.765872 139.711003 
L 93.5742 129.335705 
L 105.690106 121.126507 
L 116.459799 114.104802 
L 125.883281 108.214182 
L 135.306763 102.593456 
L 143.384034 98.013587 
L 151.461304 93.672558 
L 159.538574 89.587618 
L 167.615845 85.774995 
L 174.346903 82.816791 
L 181.077962 80.066398 
L 187.80902 77.531406 
L 194.540079 75.218808 
L 201.271137 73.134987 
L 208.002196 71.285691 
L 214.733254 69.676025 
L 221.464313 68.310428 
L 228.195372 67.19267 
L 234.92643 66.325834 
L 241.657489 65.712313 
L 248.388547 65.353799 
L 255.119606 65.251282 
L 261.850664 65.405044 
L 268.581723 65.814661 
L 275.312782 66.479003 
L 282.04384 67.396237 
L 288.774899 68.563831 
L 295.505957 69.978565 
L 302.237016 71.636534 
L 308.968074 73.533164 
L 315.699133 75.663221 
L 322.430191 78.020828 
L 329.16125 80.599479 
L 335.892309 83.39206 
L 342.623367 86.390864 
L 350.700637 90.249956 
L 358.777908 94.378733 
L 366.855178 98.760792 
L 374.932448 103.378724 
L 384.35593 109.039902 
L 393.779412 114.966512 
L 404.549106 122.02363 
L 416.665011 130.265086 
L 430.127128 139.711003 
L 447.627881 152.278537 
L 455.705151 158.13 
L 455.705151 158.13 
" clip-path="url(#pfbf6d7a0c5)" style="fill: none; stroke: #76d0ff; stroke-width: 2; stroke-linecap: square"/>
   </g>
   <g id="patch_2">
    <path d="M 254.4465 234.231263 
Q 254.4465 197.181597 254.4465 160.131931 
" style="fill: none; stroke: #ffb86b; stroke-width: 1.2; stroke-linecap: round"/>
   </g>
   <g id="text_1">
    <text style="font-size: 13px; font-family: 'DejaVu Sans', 'Bitstream Vera Sans', 'Computer Modern Sans Serif', 'Lucida Grande', 'Verdana', 'Geneva', 'Lucid', 'Arial', 'Helvetica', 'Avant Garde', sans-serif; text-anchor: middle; fill: #ffb86b" x="254.4465" y="248.1075" transform="rotate(-0 254.4465 248.1075)">1 V</text>
   </g>
   <g id="text_2">
    <text style="font-size: 15px; font-family: 'DejaVu Sans', 'Bitstream Vera Sans', 'Computer Modern Sans Serif', 'Lucida Grande', 'Verdana', 'Geneva', 'Lucid', 'Arial', 'Helvetica', 'Avant Garde', sans-serif; text-anchor: middle; fill: #ffb86b" x="237.329435" y="139.554" transform="rotate(-0 237.329435 139.554)">−</text>
   </g>
   <g id="text_3">
    <text style="font-size: 15px; font-family: 'DejaVu Sans', 'Bitstream Vera Sans', 'Computer Modern Sans Serif', 'Lucida Grande', 'Verdana', 'Geneva', 'Lucid', 'Arial', 'Helvetica', 'Avant Garde', sans-serif; text-anchor: middle; fill: #ffb86b" x="271.563565" y="139.554" transform="rotate(-0 271.563565 139.554)">+</text>
   </g>
   <g id="text_4">
    <text style="font-size: 12px; font-family: 'DejaVu Sans', 'Bitstream Vera Sans', 'Computer Modern Sans Serif', 'Lucida Grande', 'Verdana', 'Geneva', 'Lucid', 'Arial', 'Helvetica', 'Avant Garde', sans-serif; text-anchor: start; fill: #76d0ff" x="353.3451" y="68.1525" transform="rotate(-0 353.3451 68.1525)">I(z)  — the unknown</text>
   </g>
   <g id="text_5">
    <text style="font-size: 10px; font-family: 'DejaVu Sans', 'Bitstream Vera Sans', 'Computer Modern Sans Serif', 'Lucida Grande', 'Verdana', 'Geneva', 'Lucid', 'Arial', 'Helvetica', 'Avant Garde', sans-serif; text-anchor: middle; fill: #9aa3b2" x="125.117562" y="201.6675" transform="rotate(-0 125.117562 201.6675)">L = 10.582 m   (0.481 λ at λ = 22 m)</text>
   </g>
   <g id="patch_3">
    <path d="M 113.811083 66.601833 
Q 91.587211 107.136392 69.900838 146.690597 
" style="fill: none; stroke: #343c4a; stroke-linecap: round"/>
    <path d="M 73.577563 144.144681 
L 69.900838 146.690597 
L 70.07014 142.221667 
" style="fill: none; stroke: #343c4a; stroke-linecap: round"/>
   </g>
   <g id="text_6">
    <text style="font-size: 10px; font-family: 'DejaVu Sans', 'Bitstream Vera Sans', 'Computer Modern Sans Serif', 'Lucida Grande', 'Verdana', 'Geneva', 'Lucid', 'Arial', 'Helvetica', 'Avant Garde', sans-serif; fill: #9aa3b2" transform="translate(41.434131 47.442266)">radius a = 0.5 mm</text>
    <text style="font-size: 10px; font-family: 'DejaVu Sans', 'Bitstream Vera Sans', 'Computer Modern Sans Serif', 'Lucida Grande', 'Verdana', 'Geneva', 'Lucid', 'Arial', 'Helvetica', 'Avant Garde', sans-serif; fill: #9aa3b2" transform="translate(41.434131 59.445)">(21 000× thinner than it is long)</text>
   </g>
  </g>
 </g>
 <defs>
  <clipPath id="pfbf6d7a0c5">
   <rect x="7.2" y="7.2" width="494.493" height="278.64"/>
  </clipPath>
 </defs>
</svg>
