<?xml version="1.0" encoding="utf-8" standalone="no"?>
<!DOCTYPE svg PUBLIC "-//W3C//DTD SVG 1.1//EN"
  "http://www.w3.org/Graphics/SVG/1.1/DTD/svg11.dtd">
<svg xmlns:xlink="http://www.w3.org/1999/xlink" width="526.767852pt" height="293.04pt" viewBox="0 0 526.767852 293.04" xmlns="http://www.w3.org/2000/svg" version="1.1">
 <metadata>
  <rdf:RDF xmlns:dc="http://purl.org/dc/elements/1.1/" xmlns:cc="http://creativecommons.org/ns#" xmlns:rdf="http://www.w3.org/1999/02/22-rdf-syntax-ns#">
   <cc:Work>
    <dc:type rdf:resource="http://purl.org/dc/dcmitype/StillImage"/>
    <dc:date>2026-07-10T07:21:59.345216</dc:date>
    <dc:format>image/svg+xml</dc:format>
    <dc:creator>
     <cc:Agent>
      <dc:title>Matplotlib v3.11.0, https://matplotlib.org/</dc:title>
     </cc:Agent>
    </dc:creator>
   </cc:Work>
  </rdf:RDF>
 </metadata>
 <defs>
  <style type="text/css">*{stroke-linejoin: round; stroke-linecap: butt}</style>
 </defs>
 <g id="figure_1">
  <g id="patch_1">
   <path d="M 0 293.04 
L 526.767852 293.04 
L 526.767852 0 
L 0 0 
z
" style="fill: #181b22"/>
  </g>
  <g id="axes_1">
   <g id="patch_2">
    <path d="M 55.911953 252.839141 
L 501.84 252.839141 
L 501.84 22.318125 
L 55.911953 22.318125 
z
" style="fill: #181b22"/>
   </g>
   <g id="matplotlib.axis_1">
    <g id="xtick_1">
     <g id="line2d_1">
      <path d="M 125.638731 252.839141 
L 125.638731 22.318125 
" clip-path="url(#p7b7d78eba2)" style="fill: none; stroke: #343c4a; stroke-width: 0.6; stroke-linecap: square"/>
     </g>
     <g id="line2d_2">
      <defs>
       <path id="m3ea2066c53" d="M 0 0 
L 0 3.5 
" style="stroke: #9aa3b2; stroke-width: 0.8"/>
      </defs>
      <g>
       <use xlink:href="#m3ea2066c53" x="125.638731" y="252.839141" style="fill: #9aa3b2; stroke: #9aa3b2; stroke-width: 0.8"/>
      </g>
     </g>
     <g id="text_1">
      <text style="font-size: 11px; font-family: 'DejaVu Sans', 'Bitstream Vera Sans', 'Computer Modern Sans Serif', 'Lucida Grande', 'Verdana', 'Geneva', 'Lucid', 'Arial', 'Helvetica', 'Avant Garde', sans-serif; text-anchor: middle; fill: #9aa3b2" x="125.638731" y="268.196562" transform="rotate(-0 125.638731 268.196562)">−4</text>
     </g>
    </g>
    <g id="xtick_2">
     <g id="line2d_3">
      <path d="M 202.257354 252.839141 
L 202.257354 22.318125 
" clip-path="url(#p7b7d78eba2)" style="fill: none; stroke: #343c4a; stroke-width: 0.6; stroke-linecap: square"/>
     </g>
     <g id="line2d_4">
      <g>
       <use xlink:href="#m3ea2066c53" x="202.257354" y="252.839141" style="fill: #9aa3b2; stroke: #9aa3b2; stroke-width: 0.8"/>
      </g>
     </g>
     <g id="text_2">
      <text style="font-size: 11px; font-family: 'DejaVu Sans', 'Bitstream Vera Sans', 'Computer Modern Sans Serif', 'Lucida Grande', 'Verdana', 'Geneva', 'Lucid', 'Arial', 'Helvetica', 'Avant Garde', sans-serif; text-anchor: middle; fill: #9aa3b2" x="202.257354" y="268.196562" transform="rotate(-0 202.257354 268.196562)">−2</text>
     </g>
    </g>
    <g id="xtick_3">
     <g id="line2d_5">
      <path d="M 278.875977 252.839141 
L 278.875977 22.318125 
" clip-path="url(#p7b7d78eba2)" style="fill: none; stroke: #343c4a; stroke-width: 0.6; stroke-linecap: square"/>
     </g>
     <g id="line2d_6">
      <g>
       <use xlink:href="#m3ea2066c53" x="278.875977" y="252.839141" style="fill: #9aa3b2; stroke: #9aa3b2; stroke-width: 0.8"/>
      </g>
     </g>
     <g id="text_3">
      <text style="font-size: 11px; font-family: 'DejaVu Sans', 'Bitstream Vera Sans', 'Computer Modern Sans Serif', 'Lucida Grande', 'Verdana', 'Geneva', 'Lucid', 'Arial', 'Helvetica', 'Avant Garde', sans-serif; text-anchor: middle; fill: #9aa3b2" x="278.875977" y="268.196562" transform="rotate(-0 278.875977 268.196562)">0</text>
     </g>
    </g>
    <g id="xtick_4">
     <g id="line2d_7">
      <path d="M 355.494599 252.839141 
L 355.494599 22.318125 
" clip-path="url(#p7b7d78eba2)" style="fill: none; stroke: #343c4a; stroke-width: 0.6; stroke-linecap: square"/>
     </g>
     <g id="line2d_8">
      <g>
       <use xlink:href="#m3ea2066c53" x="355.494599" y="252.839141" style="fill: #9aa3b2; stroke: #9aa3b2; stroke-width: 0.8"/>
      </g>
     </g>
     <g id="text_4">
      <text style="font-size: 11px; font-family: 'DejaVu Sans', 'Bitstream Vera Sans', 'Computer Modern Sans Serif', 'Lucida Grande', 'Verdana', 'Geneva', 'Lucid', 'Arial', 'Helvetica', 'Avant Garde', sans-serif; text-anchor: middle; fill: #9aa3b2" x="355.494599" y="268.196562" transform="rotate(-0 355.494599 268.196562)">2</text>
     </g>
    </g>
    <g id="xtick_5">
     <g id="line2d_9">
      <path d="M 432.113222 252.839141 
L 432.113222 22.318125 
" clip-path="url(#p7b7d78eba2)" style="fill: none; stroke: #343c4a; stroke-width: 0.6; stroke-linecap: square"/>
     </g>
     <g id="line2d_10">
      <g>
       <use xlink:href="#m3ea2066c53" x="432.113222" y="252.839141" style="fill: #9aa3b2; stroke: #9aa3b2; stroke-width: 0.8"/>
      </g>
     </g>
     <g id="text_5">
      <text style="font-size: 11px; font-family: 'DejaVu Sans', 'Bitstream Vera Sans', 'Computer Modern Sans Serif', 'Lucida Grande', 'Verdana', 'Geneva', 'Lucid', 'Arial', 'Helvetica', 'Avant Garde', sans-serif; text-anchor: middle; fill: #9aa3b2" x="432.113222" y="268.196562" transform="rotate(-0 432.113222 268.196562)">4</text>
     </g>
    </g>
    <g id="text_6">
     <text style="font-size: 11px; font-family: 'DejaVu Sans', 'Bitstream Vera Sans', 'Computer Modern Sans Serif', 'Lucida Grande', 'Verdana', 'Geneva', 'Lucid', 'Arial', 'Helvetica', 'Avant Garde', sans-serif; text-anchor: middle; fill: #c4ccd8" x="278.875977" y="283.197422" transform="rotate(-0 278.875977 283.197422)">position along the dipole z  (m)</text>
    </g>
   </g>
   <g id="matplotlib.axis_2">
    <g id="ytick_1">
     <g id="line2d_11">
      <path d="M 55.911953 229.787039 
L 501.84 229.787039 
" clip-path="url(#p7b7d78eba2)" style="fill: none; stroke: #343c4a; stroke-width: 0.6; stroke-linecap: square"/>
     </g>
     <g id="line2d_12">
      <defs>
       <path id="m9563dcea7f" d="M 0 0 
L -3.5 0 
" style="stroke: #9aa3b2; stroke-width: 0.8"/>
      </defs>
      <g>
       <use xlink:href="#m9563dcea7f" x="55.911953" y="229.787039" style="fill: #9aa3b2; stroke: #9aa3b2; stroke-width: 0.8"/>
      </g>
     </g>
     <g id="text_7">
      <text style="font-size: 11px; font-family: 'DejaVu Sans', 'Bitstream Vera Sans', 'Computer Modern Sans Serif', 'Lucida Grande', 'Verdana', 'Geneva', 'Lucid', 'Arial', 'Helvetica', 'Avant Garde', sans-serif; text-anchor: end; fill: #9aa3b2" x="48.911953" y="233.96575" transform="rotate(-0 48.911953 233.96575)">−0.2</text>
     </g>
    </g>
    <g id="ytick_2">
     <g id="line2d_13">
      <path d="M 55.911953 199.050904 
L 501.84 199.050904 
" clip-path="url(#p7b7d78eba2)" style="fill: none; stroke: #343c4a; stroke-width: 0.6; stroke-linecap: square"/>
     </g>
     <g id="line2d_14">
      <g>
       <use xlink:href="#m9563dcea7f" x="55.911953" y="199.050904" style="fill: #9aa3b2; stroke: #9aa3b2; stroke-width: 0.8"/>
      </g>
     </g>
     <g id="text_8">
      <text style="font-size: 11px; font-family: 'DejaVu Sans', 'Bitstream Vera Sans', 'Computer Modern Sans Serif', 'Lucida Grande', 'Verdana', 'Geneva', 'Lucid', 'Arial', 'Helvetica', 'Avant Garde', sans-serif; text-anchor: end; fill: #9aa3b2" x="48.911953" y="203.229615" transform="rotate(-0 48.911953 203.229615)">0.0</text>
     </g>
    </g>
    <g id="ytick_3">
     <g id="line2d_15">
      <path d="M 55.911953 168.314768 
L 501.84 168.314768 
" clip-path="url(#p7b7d78eba2)" style="fill: none; stroke: #343c4a; stroke-width: 0.6; stroke-linecap: square"/>
     </g>
     <g id="line2d_16">
      <g>
       <use xlink:href="#m9563dcea7f" x="55.911953" y="168.314768" style="fill: #9aa3b2; stroke: #9aa3b2; stroke-width: 0.8"/>
      </g>
     </g>
     <g id="text_9">
      <text style="font-size: 11px; font-family: 'DejaVu Sans', 'Bitstream Vera Sans', 'Computer Modern Sans Serif', 'Lucida Grande', 'Verdana', 'Geneva', 'Lucid', 'Arial', 'Helvetica', 'Avant Garde', sans-serif; text-anchor: end; fill: #9aa3b2" x="48.911953" y="172.493479" transform="rotate(-0 48.911953 172.493479)">0.2</text>
     </g>
    </g>
    <g id="ytick_4">
     <g id="line2d_17">
      <path d="M 55.911953 137.578633 
L 501.84 137.578633 
" clip-path="url(#p7b7d78eba2)" style="fill: none; stroke: #343c4a; stroke-width: 0.6; stroke-linecap: square"/>
     </g>
     <g id="line2d_18">
      <g>
       <use xlink:href="#m9563dcea7f" x="55.911953" y="137.578633" style="fill: #9aa3b2; stroke: #9aa3b2; stroke-width: 0.8"/>
      </g>
     </g>
     <g id="text_10">
      <text style="font-size: 11px; font-family: 'DejaVu Sans', 'Bitstream Vera Sans', 'Computer Modern Sans Serif', 'Lucida Grande', 'Verdana', 'Geneva', 'Lucid', 'Arial', 'Helvetica', 'Avant Garde', sans-serif; text-anchor: end; fill: #9aa3b2" x="48.911953" y="141.757344" transform="rotate(-0 48.911953 141.757344)">0.4</text>
     </g>
    </g>
    <g id="ytick_5">
     <g id="line2d_19">
      <path d="M 55.911953 106.842497 
L 501.84 106.842497 
" clip-path="url(#p7b7d78eba2)" style="fill: none; stroke: #343c4a; stroke-width: 0.6; stroke-linecap: square"/>
     </g>
     <g id="line2d_20">
      <g>
       <use xlink:href="#m9563dcea7f" x="55.911953" y="106.842497" style="fill: #9aa3b2; stroke: #9aa3b2; stroke-width: 0.8"/>
      </g>
     </g>
     <g id="text_11">
      <text style="font-size: 11px; font-family: 'DejaVu Sans', 'Bitstream Vera Sans', 'Computer Modern Sans Serif', 'Lucida Grande', 'Verdana', 'Geneva', 'Lucid', 'Arial', 'Helvetica', 'Avant Garde', sans-serif; text-anchor: end; fill: #9aa3b2" x="48.911953" y="111.021208" transform="rotate(-0 48.911953 111.021208)">0.6</text>
     </g>
    </g>
    <g id="ytick_6">
     <g id="line2d_21">
      <path d="M 55.911953 76.106362 
L 501.84 76.106362 
" clip-path="url(#p7b7d78eba2)" style="fill: none; stroke: #343c4a; stroke-width: 0.6; stroke-linecap: square"/>
     </g>
     <g id="line2d_22">
      <g>
       <use xlink:href="#m9563dcea7f" x="55.911953" y="76.106362" style="fill: #9aa3b2; stroke: #9aa3b2; stroke-width: 0.8"/>
      </g>
     </g>
     <g id="text_12">
      <text style="font-size: 11px; font-family: 'DejaVu Sans', 'Bitstream Vera Sans', 'Computer Modern Sans Serif', 'Lucida Grande', 'Verdana', 'Geneva', 'Lucid', 'Arial', 'Helvetica', 'Avant Garde', sans-serif; text-anchor: end; fill: #9aa3b2" x="48.911953" y="80.285073" transform="rotate(-0 48.911953 80.285073)">0.8</text>
     </g>
    </g>
    <g id="ytick_7">
     <g id="line2d_23">
      <path d="M 55.911953 45.370227 
L 501.84 45.370227 
" clip-path="url(#p7b7d78eba2)" style="fill: none; stroke: #343c4a; stroke-width: 0.6; stroke-linecap: square"/>
     </g>
     <g id="line2d_24">
      <g>
       <use xlink:href="#m9563dcea7f" x="55.911953" y="45.370227" style="fill: #9aa3b2; stroke: #9aa3b2; stroke-width: 0.8"/>
      </g>
     </g>
     <g id="text_13">
      <text style="font-size: 11px; font-family: 'DejaVu Sans', 'Bitstream Vera Sans', 'Computer Modern Sans Serif', 'Lucida Grande', 'Verdana', 'Geneva', 'Lucid', 'Arial', 'Helvetica', 'Avant Garde', sans-serif; text-anchor: end; fill: #9aa3b2" x="48.911953" y="49.548937" transform="rotate(-0 48.911953 49.548937)">1.0</text>
     </g>
    </g>
    <g id="text_14">
     <text style="font-size: 11px; font-family: 'DejaVu Sans', 'Bitstream Vera Sans', 'Computer Modern Sans Serif', 'Lucida Grande', 'Verdana', 'Geneva', 'Lucid', 'Arial', 'Helvetica', 'Avant Garde', sans-serif; text-anchor: middle; fill: #c4ccd8" x="15.558281" y="137.578633" transform="rotate(-90 15.558281 137.578633)">basis function  (peak-normalized)</text>
    </g>
   </g>
   <g id="line2d_25">
    <path d="M 76.18141 199.050904 
L 167.508123 198.972309 
L 169.030235 198.661026 
L 170.552347 198.113036 
L 172.074459 197.328409 
L 173.596571 196.307246 
L 175.118683 195.049679 
L 176.640795 193.555869 
L 178.670277 191.196971 
L 180.69976 188.418972 
L 182.729242 185.222507 
L 184.758725 181.608309 
L 186.788207 177.577205 
L 189.32506 171.953465 
L 191.861913 165.68177 
L 194.398767 158.764362 
L 196.93562 151.203715 
L 199.472473 143.002535 
L 202.516697 132.319759 
L 205.56092 120.724352 
L 208.605144 108.222286 
L 215.200962 80.28831 
L 217.230445 73.104417 
L 219.259928 66.744136 
L 221.28941 61.208922 
L 222.811522 57.599731 
L 224.333634 54.455822 
L 225.855746 51.777599 
L 227.377858 49.565408 
L 228.899969 47.819533 
L 229.914711 46.914795 
L 230.929452 46.217461 
L 231.944193 45.727572 
L 232.958935 45.445155 
L 233.973676 45.370227 
L 234.988417 45.502791 
L 236.003158 45.842842 
L 237.0179 46.390358 
L 238.032641 47.145309 
L 239.047382 48.107651 
L 240.569494 49.939899 
L 242.091606 52.238416 
L 243.613718 55.002904 
L 245.13583 58.233009 
L 246.657942 61.928314 
L 248.687424 67.578201 
L 250.716907 74.052964 
L 252.746389 81.351121 
L 254.775872 89.471002 
L 257.820095 102.870383 
L 260.864319 115.740009 
L 263.908543 127.705543 
L 266.952767 138.760823 
L 269.996991 148.900153 
L 272.533844 156.646131 
L 275.070697 163.749628 
L 277.60755 170.208103 
L 280.144403 176.019247 
L 282.681256 181.180981 
L 284.710739 184.841544 
L 286.740221 188.084462 
L 288.769704 190.90899 
L 290.799186 193.314483 
L 292.828669 195.30039 
L 294.350781 196.51419 
L 295.872893 197.491559 
L 297.395005 198.232372 
L 298.917116 198.736531 
L 300.439228 199.003974 
L 302.468711 199.050904 
L 481.570543 199.050904 
L 481.570543 199.050904 
" clip-path="url(#p7b7d78eba2)" style="fill: none; stroke: #76d0ff; stroke-width: 2; stroke-linecap: square"/>
   </g>
   <g id="line2d_26">
    <path d="M 76.18141 199.050904 
L 212.664109 198.957367 
L 214.186221 198.628539 
L 215.708333 198.063001 
L 217.230445 197.260825 
L 218.752557 196.222116 
L 220.274669 194.947006 
L 221.796781 193.43566 
L 223.826263 191.053394 
L 225.855746 188.252047 
L 227.885228 185.032262 
L 229.914711 181.394773 
L 231.944193 177.340416 
L 234.481046 171.687669 
L 237.0179 165.387041 
L 239.554753 158.440788 
L 242.091606 150.851393 
L 244.628459 142.62157 
L 247.672683 131.90458 
L 250.716907 120.275144 
L 253.76113 107.739254 
L 260.356949 79.864148 
L 262.386431 72.725762 
L 264.415914 66.411097 
L 266.445396 60.921599 
L 267.967508 57.346754 
L 269.48962 54.237236 
L 271.011732 51.593446 
L 272.533844 49.415724 
L 274.055956 47.704351 
L 275.070697 46.82263 
L 276.085438 46.148324 
L 277.100179 45.681472 
L 278.114921 45.422101 
L 279.129662 45.370227 
L 280.144403 45.52585 
L 281.159144 45.888964 
L 282.173886 46.459547 
L 283.188627 47.237566 
L 284.203368 48.222978 
L 285.72548 50.089828 
L 287.247592 52.42294 
L 288.769704 55.222013 
L 290.291816 58.486687 
L 291.813928 62.216542 
L 293.84341 67.912457 
L 295.872893 74.433195 
L 297.902375 81.777264 
L 299.931858 89.942982 
L 308.049788 124.252646 
L 311.094012 135.578575 
L 314.138235 145.990167 
L 316.675089 153.964159 
L 319.211942 161.296611 
L 321.748795 167.984899 
L 324.285648 174.026631 
L 326.822501 179.419647 
L 328.851984 183.26568 
L 330.881466 186.694416 
L 332.910949 189.705068 
L 334.940431 192.296948 
L 336.969914 194.469463 
L 338.492026 195.823338 
L 340.014138 196.940864 
L 341.536249 197.821898 
L 343.058361 198.466324 
L 344.580473 198.874062 
L 346.102585 199.045058 
L 356.249998 199.050904 
L 481.570543 199.050904 
L 481.570543 199.050904 
" clip-path="url(#p7b7d78eba2)" style="fill: none; stroke: #ffb86b; stroke-width: 2; stroke-linecap: square"/>
   </g>
   <g id="line2d_27">
    <path d="M 76.18141 199.050904 
L 257.820095 198.941131 
L 259.342207 198.594777 
L 260.864319 198.011725 
L 262.386431 197.192048 
L 263.908543 196.135853 
L 265.430655 194.843276 
L 266.952767 193.314483 
L 268.982249 190.90899 
L 271.011732 188.084462 
L 273.041214 184.841544 
L 275.070697 181.180981 
L 277.100179 177.103609 
L 279.637033 171.422188 
L 282.173886 165.093002 
L 284.710739 158.118313 
L 287.247592 150.500618 
L 289.784445 142.242639 
L 292.828669 131.492067 
L 295.872893 119.829289 
L 298.917116 107.260314 
L 305.005564 81.351121 
L 307.035047 74.052964 
L 309.064529 67.578201 
L 311.094012 61.928314 
L 312.616123 58.233009 
L 314.138235 55.002904 
L 315.660347 52.238416 
L 317.182459 49.939899 
L 318.704571 48.107651 
L 320.226683 46.741906 
L 321.241424 46.090668 
L 322.256165 45.646882 
L 323.270907 45.410573 
L 324.285648 45.381754 
L 325.300389 45.560428 
L 326.31513 45.946584 
L 327.329872 46.5402 
L 328.344613 47.341241 
L 329.359354 48.349664 
L 330.881466 50.251005 
L 332.403578 52.618575 
L 333.92569 55.452067 
L 335.447802 58.751118 
L 336.969914 62.515303 
L 338.999396 68.25691 
L 341.028879 74.823238 
L 343.058361 82.212784 
L 345.087844 90.423856 
L 352.698403 122.720049 
L 355.742627 134.163753 
L 358.786851 144.693876 
L 361.323704 152.767177 
L 363.860557 160.199385 
L 366.39741 166.987841 
L 368.934263 173.130118 
L 371.471117 178.624017 
L 373.500599 182.550978 
L 375.530082 186.060816 
L 377.559564 189.152729 
L 379.589047 191.826009 
L 381.618529 194.080043 
L 383.140641 195.495126 
L 384.662753 196.673908 
L 386.184865 197.616239 
L 387.706977 198.321997 
L 389.229089 198.791091 
L 390.751201 199.02346 
L 393.288054 199.050904 
L 481.570543 199.050904 
L 481.570543 199.050904 
" clip-path="url(#p7b7d78eba2)" style="fill: none; stroke: #7fdc9c; stroke-width: 2; stroke-linecap: square"/>
   </g>
   <g id="line2d_28">
    <path d="M 76.18141 252.839141 
L 76.18141 22.318125 
" clip-path="url(#p7b7d78eba2)" style="fill: none; stroke: #9aa3b2; stroke-opacity: 0.35; stroke-width: 0.5; stroke-linecap: square"/>
   </g>
   <g id="line2d_29">
    <path d="M 121.224647 252.839141 
L 121.224647 22.318125 
" clip-path="url(#p7b7d78eba2)" style="fill: none; stroke: #9aa3b2; stroke-opacity: 0.35; stroke-width: 0.5; stroke-linecap: square"/>
   </g>
   <g id="line2d_30">
    <path d="M 166.267884 252.839141 
L 166.267884 22.318125 
" clip-path="url(#p7b7d78eba2)" style="fill: none; stroke: #9aa3b2; stroke-opacity: 0.35; stroke-width: 0.5; stroke-linecap: square"/>
   </g>
   <g id="line2d_31">
    <path d="M 211.311121 252.839141 
L 211.311121 22.318125 
" clip-path="url(#p7b7d78eba2)" style="fill: none; stroke: #9aa3b2; stroke-opacity: 0.35; stroke-width: 0.5; stroke-linecap: square"/>
   </g>
   <g id="line2d_32">
    <path d="M 256.354358 252.839141 
L 256.354358 22.318125 
" clip-path="url(#p7b7d78eba2)" style="fill: none; stroke: #9aa3b2; stroke-opacity: 0.35; stroke-width: 0.5; stroke-linecap: square"/>
   </g>
   <g id="line2d_33">
    <path d="M 301.397595 252.839141 
L 301.397595 22.318125 
" clip-path="url(#p7b7d78eba2)" style="fill: none; stroke: #9aa3b2; stroke-opacity: 0.35; stroke-width: 0.5; stroke-linecap: square"/>
   </g>
   <g id="line2d_34">
    <path d="M 346.440832 252.839141 
L 346.440832 22.318125 
" clip-path="url(#p7b7d78eba2)" style="fill: none; stroke: #9aa3b2; stroke-opacity: 0.35; stroke-width: 0.5; stroke-linecap: square"/>
   </g>
   <g id="line2d_35">
    <path d="M 391.484069 252.839141 
L 391.484069 22.318125 
" clip-path="url(#p7b7d78eba2)" style="fill: none; stroke: #9aa3b2; stroke-opacity: 0.35; stroke-width: 0.5; stroke-linecap: square"/>
   </g>
   <g id="line2d_36">
    <path d="M 436.527306 252.839141 
L 436.527306 22.318125 
" clip-path="url(#p7b7d78eba2)" style="fill: none; stroke: #9aa3b2; stroke-opacity: 0.35; stroke-width: 0.5; stroke-linecap: square"/>
   </g>
   <g id="line2d_37">
    <path d="M 481.570543 252.839141 
L 481.570543 22.318125 
" clip-path="url(#p7b7d78eba2)" style="fill: none; stroke: #9aa3b2; stroke-opacity: 0.35; stroke-width: 0.5; stroke-linecap: square"/>
   </g>
   <g id="line2d_38">
    <path d="M 55.911953 199.050904 
L 501.84 199.050904 
" clip-path="url(#p7b7d78eba2)" style="fill: none; stroke: #9aa3b2; stroke-width: 0.8; stroke-linecap: square"/>
   </g>
   <g id="patch_3">
    <path d="M 55.911953 252.839141 
L 55.911953 22.318125 
" style="fill: none; stroke: #343c4a; stroke-width: 0.8; stroke-linejoin: miter; stroke-linecap: square"/>
   </g>
   <g id="patch_4">
    <path d="M 501.84 252.839141 
L 501.84 22.318125 
" style="fill: none; stroke: #343c4a; stroke-width: 0.8; stroke-linejoin: miter; stroke-linecap: square"/>
   </g>
   <g id="patch_5">
    <path d="M 55.911953 252.839141 
L 501.84 252.839141 
" style="fill: none; stroke: #343c4a; stroke-width: 0.8; stroke-linejoin: miter; stroke-linecap: square"/>
   </g>
   <g id="patch_6">
    <path d="M 55.911953 22.318125 
L 501.84 22.318125 
" style="fill: none; stroke: #343c4a; stroke-width: 0.8; stroke-linejoin: miter; stroke-linecap: square"/>
   </g>
   <g id="text_15">
    <text style="font-size: 12px; font-family: 'DejaVu Sans', 'Bitstream Vera Sans', 'Computer Modern Sans Serif', 'Lucida Grande', 'Verdana', 'Geneva', 'Lucid', 'Arial', 'Helvetica', 'Avant Garde', sans-serif; text-anchor: middle; fill: #c4ccd8" x="278.875977" y="16.318125" transform="rotate(-0 278.875977 16.318125)">Three-term basis: A + B·sin ks + C·cos ks per segment, continuous across joints</text>
   </g>
   <g id="legend_1">
    <g id="line2d_39">
     <path d="M 368.7075 34.106719 
L 377.7075 34.106719 
L 386.7075 34.106719 
" style="fill: none; stroke: #76d0ff; stroke-width: 2; stroke-linecap: square"/>
    </g>
    <g id="text_16">
     <text style="font-size: 9px; font-family: 'DejaVu Sans', 'Bitstream Vera Sans', 'Computer Modern Sans Serif', 'Lucida Grande', 'Verdana', 'Geneva', 'Lucid', 'Arial', 'Helvetica', 'Avant Garde', sans-serif; text-anchor: start; fill: #c4ccd8" x="393.9075" y="37.256719" transform="rotate(-0 393.9075 37.256719)">basis fn on segment 3</text>
    </g>
    <g id="line2d_40">
     <path d="M 368.7075 47.607422 
L 377.7075 47.607422 
L 386.7075 47.607422 
" style="fill: none; stroke: #ffb86b; stroke-width: 2; stroke-linecap: square"/>
    </g>
    <g id="text_17">
     <text style="font-size: 9px; font-family: 'DejaVu Sans', 'Bitstream Vera Sans', 'Computer Modern Sans Serif', 'Lucida Grande', 'Verdana', 'Geneva', 'Lucid', 'Arial', 'Helvetica', 'Avant Garde', sans-serif; text-anchor: start; fill: #c4ccd8" x="393.9075" y="50.757422" transform="rotate(-0 393.9075 50.757422)">basis fn on segment 4</text>
    </g>
    <g id="line2d_41">
     <path d="M 368.7075 61.108125 
L 377.7075 61.108125 
L 386.7075 61.108125 
" style="fill: none; stroke: #7fdc9c; stroke-width: 2; stroke-linecap: square"/>
    </g>
    <g id="text_18">
     <text style="font-size: 9px; font-family: 'DejaVu Sans', 'Bitstream Vera Sans', 'Computer Modern Sans Serif', 'Lucida Grande', 'Verdana', 'Geneva', 'Lucid', 'Arial', 'Helvetica', 'Avant Garde', sans-serif; text-anchor: start; fill: #c4ccd8" x="393.9075" y="64.258125" transform="rotate(-0 393.9075 64.258125)">basis fn on segment 5</text>
    </g>
   </g>
  </g>
 </g>
 <defs>
  <clipPath id="p7b7d78eba2">
   <rect x="55.911953" y="22.318125" width="445.928047" height="230.521016"/>
  </clipPath>
 </defs>
</svg>
